<?xml version="1.0" encoding="UTF-8"?>
<svg width="34px" height="46px" viewBox="0 0 34 46" version="1.1" xmlns="http://www.w3.org/2000/svg" xmlns:xlink="http://www.w3.org/1999/xlink">
    <title>pdf</title>
    <g id="Page-1" stroke="none" stroke-width="1" fill="none" fill-rule="evenodd">
        <g id="Press-Release" transform="translate(-390.000000, -729.000000)" fill="#B5316A" fill-rule="nonzero">
            <g id="Group" transform="translate(362.000000, 694.000000)">
                <g id="pdf" transform="translate(28.000000, 35.000000)">
                    <path d="M33.7233073,9.864125 L24.2788333,0.280761719 C24.10175,0.101074219 23.8619792,0 23.6110521,0 L3.77771875,0 C1.69424479,0 0,1.71916016 0,3.83336328 L0,42.1667266 C0,44.2808398 1.69424479,46 3.77780729,46 L30.2222812,46 C32.3057552,46 34,44.2808398 34,42.1666367 L34,10.5416367 C34,10.2871094 33.9003906,10.0438125 33.7233073,9.864125 Z M24.555526,3.27183984 L30.7755781,9.58336328 L26.4443854,9.58336328 C25.4031354,9.58336328 24.555526,8.72328906 24.555526,7.66672656 L24.555526,3.27183984 L24.555526,3.27183984 Z M32.1111406,42.1666367 C32.1111406,43.2231992 31.2635313,44.0832734 30.2222813,44.0832734 L3.77780729,44.0832734 C2.73655729,44.0832734 1.88894792,43.2231992 1.88894792,42.1666367 L1.88894792,3.83336328 C1.88894792,2.77680078 2.73655729,1.91672656 3.77780729,1.91672656 L22.6666667,1.91672656 L22.6666667,7.66672656 C22.6666667,9.78083984 24.3609115,11.5 26.444474,11.5 L32.1111406,11.5 L32.1111406,42.1666367 Z" id="Shape"></path>
                    <path d="M21.8153385,28.3249492 C20.9409896,27.6267734 20.110026,26.9090117 19.5566406,26.3474883 C18.8372396,25.6175078 18.1961979,24.9099883 17.6391823,24.2361602 C18.5080417,21.5118281 18.8889479,20.1071211 18.8889479,19.3583633 C18.8889479,16.1773555 17.7563229,15.525 16.0556146,15.525 C14.7634375,15.525 13.2222813,16.2062852 13.2222813,19.4500938 C13.2222813,20.8801367 13.994276,22.6161875 15.5243646,24.6338984 C15.1499219,25.7934219 14.7099583,27.1308359 14.2156302,28.6385039 C13.9776302,29.3619258 13.7194427,30.0319805 13.4463802,30.651543 C13.2241406,30.7517187 13.008276,30.8536914 12.799849,30.9594375 C12.0491042,31.340375 11.3361667,31.6828594 10.674849,32.0010859 C7.65885417,33.4498164 5.66666667,34.4081797 5.66666667,36.3004688 C5.66666667,37.6743594 7.13778646,38.525 8.5,38.525 C10.2560469,38.525 12.9076927,36.1450391 14.8445417,32.1357617 C16.8551458,31.3309414 19.3546771,30.7347383 21.327474,30.3613477 C22.9082969,31.5948125 24.65425,32.775 25.5,32.775 C27.84175,32.775 28.3333333,31.4011094 28.3333333,30.249043 C28.3333333,27.9832734 25.7821823,27.9832734 24.555526,27.9832734 C24.1746198,27.9833633 23.1527604,28.0975547 21.8153385,28.3249492 Z M8.5,36.6083633 C7.96042708,36.6083633 7.59519271,36.3500625 7.55552604,36.3004688 C7.55552604,35.6209805 9.55231771,34.6608203 11.4836771,33.7324648 C11.6063073,33.6735273 11.7308854,33.6145 11.8572344,33.5536758 C10.4387083,35.6407461 9.03585417,36.6083633 8.5,36.6083633 Z M15.1111406,19.4500938 C15.1111406,17.4417266 15.7254427,17.4417266 16.0556146,17.4417266 C16.7233958,17.4417266 17.0000885,17.4417266 17.0000885,19.3583633 C17.0000885,19.7626602 16.7344635,20.7734023 16.2483698,22.3513281 C15.5067448,21.1927031 15.1111406,20.19975 15.1111406,19.4500938 Z M15.8351458,29.7503203 C15.8942031,29.58375 15.951401,29.415293 16.0067396,29.2449492 C16.3571875,28.1780547 16.6726615,27.2196914 16.9539583,26.356832 C17.3459323,26.7948203 17.7683646,27.2431406 18.2212552,27.7026016 C18.3983385,27.8822891 18.8373281,28.2865859 19.4221458,28.7928555 C18.258,29.0502578 17.0193906,29.3693828 15.8351458,29.7503203 Z M26.444474,30.2491328 C26.444474,30.6796641 26.444474,30.8583633 25.5682656,30.8640234 C25.3109635,30.8078711 24.7160521,30.4522695 23.9818646,29.9450117 C24.248375,29.9150937 24.444849,29.9000898 24.555526,29.9000898 C25.9510312,29.9000898 26.346724,30.0385391 26.444474,30.2491328 Z" id="Shape"></path>
                </g>
            </g>
        </g>
    </g>
</svg>